<?xml version="1.0" encoding="utf-8"?>
<!-- Generator: Adobe Illustrator 20.1.0, SVG Export Plug-In . SVG Version: 6.00 Build 0)  -->
<svg version="1.1" id="XMLID_1_" xmlns="http://www.w3.org/2000/svg" xmlns:xlink="http://www.w3.org/1999/xlink" x="0px" y="0px"
	 viewBox="0 0 480 480" enable-background="new 0 0 480 480" xml:space="preserve">
<g id="maen-font-logo">
	<g>
		<path fill="#FF9300" d="M233.3611,240.0295c2.8395,68.8068-41.0309,94.23-93.2806,94.6098
			c-59.0987,0.4306-93.1083-24.3936-95.9388-94.6095c-3.0103-74.6832,42.3749-93.2941,94.6096-94.6102
			C201.394,143.8441,230.5234,171.2813,233.3611,240.0295z"/>
		<polygon fill="#0A010B" points="138.7403,271.3733 140.1218,272.2686 139.4964,272.8047 142.3515,273.4096 141.1663,274.289 
			145.4699,275.489 144.0923,276.1122 146.3279,276.9182 145.0123,277.377 148.7452,277.828 147.6791,278.7111 151.5774,279.3081 
			149.8558,279.899 154.0464,280.2176 153.2148,280.9711 156.4637,280.8412 155.5275,281.6734 160.6741,281.8036 159.2189,282.6866 
			163.2477,281.8035 163.1178,283.2064 166.1929,281.7221 165.3781,283.2593 169.4881,282.118 169.0353,283.0867 172.8981,281.1292 
			172.488,282.4451 175.4339,280.8655 175.4339,282.0654 178.3069,280.0552 177.9497,281.235 181.2016,278.8878 180.6442,280.0655 
			183.0332,278.045 182.9905,279.0967 184.8961,276.7089 184.9712,277.6674 186.4216,275.6879 186.4318,276.6461 187.6946,274.2664 
			188.0836,275.1092 188.7793,272.626 189.2634,273.3407 189.5153,271.7833 190.1575,272.0878 189.9994,269.7833 190.4522,270.4044 
			190.8622,268.5407 191.3463,269.1212 191.0468,267.2635 191.9981,267.6005 191.3427,265.4036 192.294,265.6351 191.3427,263.3956 
			192.0402,263.7122 191.2579,261.3246 191.6806,261.1338 190.0318,258.7661 190.561,261.4503 189.926,260.9001 190.1172,263.5011 
			189.6735,263.162 189.4612,265.4869 188.8906,264.7053 188.3416,267.1153 188.1509,265.9518 186.587,268.8068 186.5659,267.5579 
			184.9803,269.5885 185.0644,268.5527 182.8876,270.0311 183.0561,269.2716 180.8799,269.8849 181.302,269.3976 178.8505,269.2067 
			179.569,268.8697 177.1602,268.1935 177.4981,267.7286 175.4897,266.8411 176.0177,266.3964 173.7988,265.5092 174.8553,265.235 
			172.3196,263.7122 173.7345,263.9864 171.4736,262.4858 172.6991,262.4657 170.3112,260.9023 171.3882,260.5204 169.3389,259.485 
			170.4586,259.359 168.2391,257.8788 169.2536,257.9216 166.8441,256.758 168.4718,256.5043 164.8994,254.559 166.5693,254.6444 
			163.5254,253.0383 165.0263,252.8474 162.0251,251.7897 162.6168,251.1358 159.6776,250.2464 161.1797,250.015 158.4311,249.2332 
			159.2339,248.8313 155.9579,248.0294 157.2688,247.7756 154.7319,247.4567 155.0067,246.6975 151.7512,246.803 152.9562,245.8933 
			150.1877,246.338 150.2088,245.4507 148.2635,246.0619 148.0314,245.3229 146.1084,246.2102 145.8751,245.6194 144.2264,246.8863 
			144.6497,245.7451 142.8108,247.331 142.684,246.4862 141.141,248.2811 141.0142,247.3512 139.7878,249.402 139.5767,248.472 
			138.7403,250.1208 137.9035,248.472 137.6916,249.402 136.4661,247.3512 136.3392,248.2811 134.796,246.4862 134.6691,247.331 
			132.8297,245.7451 133.253,246.8864 131.6042,245.6194 131.3718,246.2102 129.4479,245.3229 129.2155,246.0619 127.2711,245.4508 
			127.2925,246.338 124.5231,245.8933 125.7282,246.8031 122.4724,246.6976 122.7475,247.4567 120.2106,247.7757 121.522,248.0294 
			118.2449,248.8313 119.0482,249.2333 116.3,250.015 117.8014,250.2465 114.8634,251.1359 115.4554,251.7898 112.4534,252.8475 
			113.9549,253.0384 110.9101,254.6445 112.5802,254.5591 109.0076,256.5044 110.635,256.7581 108.2259,257.9217 109.2402,257.8789 
			107.0208,259.3591 108.1416,259.485 106.0909,260.5205 107.1691,260.9023 104.7804,262.4658 106.0067,262.4859 103.7449,263.9865 
			105.161,263.7123 102.625,265.2351 103.6808,265.5093 101.4617,266.3965 101.9906,266.8412 99.9825,267.7287 100.3204,268.1936 
			97.9104,268.8698 98.6292,269.2068 96.1774,269.3977 96.6007,269.8851 94.4231,269.2717 94.5927,270.0312 92.415,268.5529 
			92.4991,269.5886 90.9144,267.558 90.8931,268.8069 89.3287,265.9519 89.139,267.1154 88.5886,264.7054 88.0182,265.4871 
			87.8068,263.1621 87.3633,263.5013 87.5531,260.9003 86.9196,261.4505 87.4475,258.7662 85.7987,261.1339 86.2211,261.3248 
			85.4395,263.7123 86.137,263.3957 85.1857,265.6353 86.137,265.4038 85.4822,267.6007 86.4322,267.2637 86.1328,269.1214 
			86.6171,268.5409 87.0272,270.4046 87.48,269.7834 87.3216,272.088 87.9644,271.7834 88.2172,273.3408 88.7013,272.6261 
			89.3958,275.1093 89.7846,274.2665 91.0476,276.6462 91.0587,275.688 92.5094,277.6675 92.5846,276.709 94.4892,279.0968 
			94.4474,278.0451 96.8364,280.0656 96.2778,278.8879 99.5306,281.2351 99.1723,280.0554 102.0453,282.0655 102.0453,280.8656 
			104.9926,282.4452 104.5823,281.1293 108.4442,283.0868 107.9914,282.1181 112.102,283.2594 111.2869,281.7221 114.3629,283.2065 
			114.233,281.8036 118.2615,282.6866 116.8054,281.8036 121.9517,281.6734 121.0167,280.8412 124.2653,280.9711 123.4327,280.2176 
			127.6236,279.899 125.9017,279.3082 129.8004,278.7111 128.7354,277.828 132.4671,277.3771 131.1526,276.9182 133.3871,276.1122 
			132.0093,275.489 136.3137,274.289 135.1279,273.4096 137.983,272.8047 137.3585,272.2686 		"/>
		<circle fill="#FFFFFF" cx="122.1068" cy="223.3393" r="4.1583"/>
		<circle fill="#FFFFFF" cx="155.3733" cy="223.3393" r="4.1584"/>
	</g>
	<g>
		<path fill="#ABD500" d="M247.929,211.5363c0,24.1559,12.0233,50.3893,42.9385,55.3777
			c7.0221,1.1331,7.1683,21.7073,3.7763,21.7073c-5.2314,0-2.1521-12.3937-5.2736-15.1633
			c-4.5464-4.0323-29.5165-3.6808-36.0576-1.352c-5.1022,1.8151-2.2609,37.6968,19.3021,51.5726
			c21.5625,13.8762,116.5673,16.8628,139.9768-4.997c23.4108-21.8595,37.5427-124.4264,1.4376-153.4393
			c-36.1052-29.0126-120.8047-22.9699-145.2792-1.0557C253.6661,177.6933,247.929,187.3822,247.929,211.5363z"/>
		<circle fill="#0A010B" cx="325.2607" cy="223.3391" r="8.3167"/>
		<circle fill="#0A010B" cx="358.5271" cy="223.3391" r="8.3165"/>
		<polygon fill="#FFFFFF" points="340.7588,209.9198 338.573,204.4236 337.3163,207.3354 335.6982,206.119 333.2767,202.3223 
			333.1468,204.2023 327.6081,200.0422 329.0086,203.2805 327.0567,202.5761 328.5269,205.8409 317.2133,199.5061 
			318.9968,202.8359 316.802,201.8187 317.4881,204.7486 309.7017,200.0422 311.6649,203.1263 307.8918,201.4817 311.2537,206.1903 
			302.9484,200.0422 304.1871,203.2054 289.5818,195.7498 293.6124,200.6288 291.9366,200.0422 294.0225,203.92 291.7231,203.6359 
			285.2229,200.0422 285.986,202.7243 283.1791,202.1537 284.44,205.0126 280.6572,201.6501 280.4918,203.4673 275.0277,200.0422 
			276.3698,203.8389 272.3356,204.172 277.2411,206.3019 277.3963,206.7426 273.2592,206.1049 273.7349,206.8969 268.3886,205.6744 
			272.691,209.9789 271.1583,212.9981 275.4944,212.9981 268.6562,216.9433 274.2677,216.5798 271.9153,218.7138 274.9195,218.8133 
			269.1938,225.5279 279.6187,221.199 276.706,223.589 282.1244,222.1148 279.3873,227.404 293.841,221.4185 291.5842,223.6722 
			297.5739,222.1413 297.0934,224.1857 301.833,223.1259 301.4806,224.4436 305.9658,222.202 308.2375,221.6924 308.2742,222.5026 
			310.9952,221.0773 314.5591,220.2793 315.3931,220.7564 316.3571,219.8773 317.4815,219.6254 338.3043,219.7372 
			341.8941,218.0093 341.8941,210.7728 		"/>
		<polygon fill="#FFFFFF" points="408.2927,212.9979 412.6288,212.9979 411.096,209.9787 415.3984,205.6742 410.0522,206.8967 
			410.5277,206.1047 406.3908,206.7424 406.5471,206.3017 411.4526,204.1718 407.4172,203.8387 408.7593,200.0421 
			403.2964,203.4671 403.1305,201.6499 399.3482,205.0125 400.6091,202.1536 397.8016,202.7242 398.5653,200.0421 
			392.0639,203.6358 389.7651,203.9199 391.8504,200.0421 390.1752,200.6286 394.2057,195.7496 379.5999,203.2053 
			380.8386,200.0421 372.5334,206.1902 375.8952,201.4816 372.1232,203.1262 374.0853,200.0421 366.2995,204.7503 
			366.9862,201.8186 364.7903,202.8358 366.5738,199.506 355.26,205.8408 356.7302,202.576 354.7784,203.2804 356.1788,200.0421 
			350.6402,204.2023 350.5103,202.3223 348.09,206.1172 346.4707,207.3354 345.2146,204.4236 343.0288,209.9198 341.8941,210.7728 
			341.8941,218.0093 345.4828,219.7372 366.3055,219.6253 367.4306,219.8772 368.3939,220.7564 369.2285,220.2792 
			372.7931,221.0772 375.5128,222.5025 375.5495,221.6923 377.8225,222.2019 382.3077,224.4435 381.9541,223.1258 
			386.6942,224.1856 386.2132,222.1412 392.2029,223.6721 389.9473,221.4184 404.3998,227.4038 401.6638,222.1147 
			407.0811,223.5888 404.1689,221.1989 414.5933,225.5277 408.8676,218.8132 411.8729,218.7137 409.5194,216.5796 
			415.1308,216.9431 		"/>
	</g>
	<rect fill="none" width="480" height="480"/>
</g>
</svg>
